<?xml version="1.0" standalone="no"?>
<!DOCTYPE svg PUBLIC "-//W3C//DTD SVG 20010904//EN"
 "http://www.w3.org/TR/2001/REC-SVG-20010904/DTD/svg10.dtd">
<svg version="1.0" xmlns="http://www.w3.org/2000/svg"
 width="450.000000pt" height="428.000000pt" viewBox="0 0 450.000000 428.000000"
 preserveAspectRatio="xMidYMid meet">

<g transform="translate(0.000000,428.000000) scale(0.100000,-0.100000)"
fill="#000000" stroke="none">
<path d="M0 2140 l0 -2140 2250 0 2250 0 0 2140 0 2140 -2250 0 -2250 0 0
-2140z m3366 1677 c45 -21 84 -52 151 -120 204 -208 371 -396 394 -443 l24
-49 0 -1310 0 -1310 -22 -47 c-30 -66 -97 -135 -168 -171 l-60 -32 -1357 -3
c-1350 -2 -1357 -2 -1412 18 -77 29 -148 96 -188 178 l-33 66 -3 288 -3 288
90 0 91 0 0 -257 c0 -298 5 -320 81 -370 l43 -28 1299 -3 c877 -1 1311 1 1337
8 49 13 99 54 116 97 12 27 14 247 14 1270 0 1220 0 1237 -20 1277 -31 62
-396 446 -450 474 l-44 22 -1122 0 -1121 0 -43 -23 c-30 -16 -51 -37 -67 -67
l-23 -43 0 -894 c0 -707 -3 -895 -13 -898 -19 -8 -127 -13 -148 -8 -18 5 -19
35 -19 912 0 1000 -2 961 63 1057 42 64 104 109 180 133 60 20 91 20 1217 18
l1155 -2 61 -28z m-1588 -503 c18 -12 22 -25 22 -66 0 -91 11 -88 -326 -88
-291 0 -293 0 -308 22 -25 35 -20 94 9 123 l24 25 278 0 c236 0 282 -2 301
-16z m693 -187 c34 -26 39 -55 39 -219 0 -116 4 -169 13 -181 10 -13 40 -16
195 -19 l184 -3 24 -28 c23 -27 24 -34 24 -178 0 -84 -5 -159 -10 -170 -22
-41 -60 -49 -231 -49 -137 0 -165 -3 -181 -17 -16 -14 -18 -34 -18 -180 0
-238 -4 -243 -217 -243 -133 0 -183 12 -202 48 -7 13 -11 86 -11 184 0 126 -3
169 -14 184 -13 17 -31 19 -196 24 l-182 5 -24 28 c-23 27 -24 34 -24 182 0
148 1 155 24 182 l24 28 179 3 c103 2 183 8 191 14 9 8 12 55 12 175 0 171 8
209 47 232 26 15 334 14 354 -2z m-965 -1033 c66 -31 52 1 264 -627 l148 -438
32 83 c18 46 47 125 66 176 43 116 55 140 91 173 68 64 67 64 431 69 l334 5
31 37 c18 20 51 59 75 87 63 74 135 106 237 106 63 0 90 -5 126 -23 74 -36
125 -87 161 -159 59 -121 40 -264 -48 -362 -26 -29 -69 -62 -102 -78 -48 -24
-69 -28 -137 -28 -98 1 -170 30 -230 95 -22 24 -59 63 -81 87 l-41 43 -307 0
c-283 0 -307 -1 -324 -18 -18 -18 -52 -99 -133 -322 -23 -63 -50 -132 -61
-153 -47 -94 -175 -103 -235 -18 -13 19 -232 650 -323 931 -32 99 -20 113
-105 -121 -62 -172 -74 -195 -112 -230 -69 -64 -66 -64 -430 -64 l-333 0 -27
27 c-39 39 -39 100 0 134 l28 24 303 0 c285 0 305 1 328 19 17 13 42 65 77
158 30 76 71 183 92 239 59 151 114 191 205 148z"/>
<path d="M3135 1561 c-90 -61 -84 -194 11 -248 46 -27 84 -29 130 -7 96 46
111 168 30 243 -37 35 -128 41 -171 12z"/>
</g>
</svg>
